<svg width="38" height="38" viewBox="0 0 38 38" fill="none" xmlns="http://www.w3.org/2000/svg">
<g clip-path="url(#clip0_195_153)">
<path d="M33.2788 14.4515C32.9909 13.6455 32.7031 12.8394 32.3 12.0909C31.494 12.6667 30.5727 12.9545 29.594 12.9545C25.8515 12.9545 23.6637 8.69394 25.9091 5.64242C25.1606 5.23939 24.3546 4.89394 23.5485 4.66364C22.7424 9.84545 15.2576 9.84545 14.5091 4.66364C13.7031 4.95151 12.897 5.23939 12.1485 5.64242C15.2576 9.84545 9.90305 15.1424 5.7576 12.0333C5.35457 12.7818 5.00911 13.5879 4.77881 14.3939C9.96063 15.2 9.96063 22.6848 4.77881 23.4333C5.06669 24.2394 5.35457 25.0455 5.7576 25.7939C6.56366 25.2182 7.48487 24.9303 8.46366 24.9303C12.2061 24.9303 14.394 29.1909 12.1485 32.2424C12.897 32.6455 13.7031 32.9909 14.5091 33.2212C15.3152 28.0394 22.8 28.0394 23.5485 33.2212C24.3546 32.9333 25.1606 32.6455 25.9091 32.2424C23.7212 29.2485 25.8515 24.9303 29.594 24.9303C30.5727 24.9303 31.494 25.2182 32.3 25.7939C32.7031 25.0455 33.0485 24.2394 33.2788 23.4333C28.097 22.7424 28.097 15.2576 33.2788 14.4515ZM19 28.2121C13.9334 28.2121 9.7879 24.0667 9.7879 19C9.7879 13.9333 13.9334 9.78788 19 9.78788C24.0667 9.78788 28.2121 13.9333 28.2121 19C28.2121 24.0667 24.0667 28.2121 19 28.2121Z" fill="#8B0CFF" fill-opacity="0.5"/>
<path d="M19 7.48485C20.9078 7.48485 22.4545 5.9382 22.4545 4.0303C22.4545 2.12241 20.9078 0.57576 19 0.57576C17.0921 0.57576 15.5454 2.12241 15.5454 4.0303C15.5454 5.9382 17.0921 7.48485 19 7.48485Z" fill="#8B0CFF" fill-opacity="0.5"/>
<path d="M19 37.4242C20.9078 37.4242 22.4545 35.8776 22.4545 33.9697C22.4545 32.0618 20.9078 30.5152 19 30.5152C17.0921 30.5152 15.5454 32.0618 15.5454 33.9697C15.5454 35.8776 17.0921 37.4242 19 37.4242Z" fill="#8B0CFF" fill-opacity="0.5"/>
<path d="M29.5939 11.8606C31.5018 11.8606 33.0485 10.314 33.0485 8.40607C33.0485 6.49818 31.5018 4.95152 29.5939 4.95152C27.6861 4.95152 26.1394 6.49818 26.1394 8.40607C26.1394 10.314 27.6861 11.8606 29.5939 11.8606Z" fill="#8B0CFF" fill-opacity="0.5"/>
<path d="M8.40608 33.0485C10.314 33.0485 11.8606 31.5018 11.8606 29.5939C11.8606 27.686 10.314 26.1394 8.40608 26.1394C6.49819 26.1394 4.95154 27.686 4.95154 29.5939C4.95154 31.5018 6.49819 33.0485 8.40608 33.0485Z" fill="#8B0CFF" fill-opacity="0.5"/>
<path d="M33.9697 22.4545C35.8776 22.4545 37.4242 20.9079 37.4242 19C37.4242 17.0921 35.8776 15.5455 33.9697 15.5455C32.0618 15.5455 30.5151 17.0921 30.5151 19C30.5151 20.9079 32.0618 22.4545 33.9697 22.4545Z" fill="#8B0CFF" fill-opacity="0.5"/>
<path d="M4.03035 22.4545C5.93824 22.4545 7.4849 20.9079 7.4849 19C7.4849 17.0921 5.93824 15.5455 4.03035 15.5455C2.12246 15.5455 0.575806 17.0921 0.575806 19C0.575806 20.9079 2.12246 22.4545 4.03035 22.4545Z" fill="#8B0CFF" fill-opacity="0.5"/>
<path d="M29.5939 33.0485C31.5018 33.0485 33.0485 31.5018 33.0485 29.5939C33.0485 27.686 31.5018 26.1394 29.5939 26.1394C27.6861 26.1394 26.1394 27.686 26.1394 29.5939C26.1394 31.5018 27.6861 33.0485 29.5939 33.0485Z" fill="#8B0CFF" fill-opacity="0.5"/>
<path d="M8.40608 11.8606C10.314 11.8606 11.8606 10.314 11.8606 8.40607C11.8606 6.49818 10.314 4.95152 8.40608 4.95152C6.49819 4.95152 4.95154 6.49818 4.95154 8.40607C4.95154 10.314 6.49819 11.8606 8.40608 11.8606Z" fill="#8B0CFF" fill-opacity="0.5"/>
</g>
<defs>
<clipPath id="clip0_195_153">
<rect width="38" height="38" fill="white"/>
</clipPath>
</defs>
</svg>
