<svg width="16" height="19" viewBox="0 0 16 19" fill="none" xmlns="http://www.w3.org/2000/svg">
<path d="M15.1582 18.25C15.1582 14.8638 11.9499 12.125 7.99989 12.125C4.04989 12.125 0.841553 14.8638 0.841553 18.25M7.99989 9.5C9.10495 9.5 10.1648 9.03906 10.9462 8.21859C11.7276 7.39812 12.1666 6.28532 12.1666 5.125C12.1666 3.96468 11.7276 2.85188 10.9462 2.03141C10.1648 1.21094 9.10495 0.75 7.99989 0.75C6.89482 0.75 5.83501 1.21094 5.05361 2.03141C4.27221 2.85188 3.83322 3.96468 3.83322 5.125C3.83322 6.28532 4.27221 7.39812 5.05361 8.21859C5.83501 9.03906 6.89482 9.5 7.99989 9.5Z" stroke="black" stroke-width="1.5" stroke-linecap="round" stroke-linejoin="round"/>
</svg>
