<svg width="96" height="96" viewBox="0 0 96 96" fill="none" xmlns="http://www.w3.org/2000/svg">
<path d="M93.4102 42.0103L86.9502 34.5053C85.7152 33.0803 84.7177 30.4203 84.7177 28.5203V20.4453C84.7177 15.4103 80.5852 11.2778 75.5502 11.2778H67.4752C65.6227 11.2778 62.9152 10.2803 61.4902 9.04527L53.9852 2.58527C50.7077 -0.217226 45.3402 -0.217226 42.0152 2.58527L34.5577 9.09277C33.1327 10.2803 30.4252 11.2778 28.5727 11.2778H20.3552C15.3202 11.2778 11.1877 15.4103 11.1877 20.4453V28.5678C11.1877 30.4203 10.1902 33.0803 9.00268 34.5053L2.59018 42.0578C-0.164824 45.3353 -0.164824 50.6553 2.59018 53.9328L9.00268 61.4853C10.1902 62.9103 11.1877 65.5703 11.1877 67.4228V75.5453C11.1877 80.5803 15.3202 84.7128 20.3552 84.7128H28.5727C30.4252 84.7128 33.1327 85.7103 34.5577 86.9453L42.0627 93.4053C45.3402 96.2078 50.7077 96.2078 54.0327 93.4053L61.5377 86.9453C62.9627 85.7103 65.6227 84.7128 67.5227 84.7128H75.5977C80.6327 84.7128 84.7652 80.5803 84.7652 75.5453V67.4703C84.7652 65.6178 85.7627 62.9103 86.9977 61.4853L93.4577 53.9803C96.2127 50.7028 96.2127 45.2878 93.4102 42.0103ZM67.7602 39.0178L44.8177 61.9603C44.1497 62.6274 43.2442 63.0021 42.3002 63.0021C41.3561 63.0021 40.4507 62.6274 39.7827 61.9603L28.2877 50.4653C27.6251 49.7949 27.2536 48.8903 27.2536 47.9478C27.2536 47.0052 27.6251 46.1007 28.2877 45.4303C29.6652 44.0528 31.9452 44.0528 33.3227 45.4303L42.3002 54.4078L62.7252 33.9828C64.1027 32.6053 66.3827 32.6053 67.7602 33.9828C69.1377 35.3603 69.1377 37.6403 67.7602 39.0178Z" fill="#8B0CFF"/>
</svg>
