<svg width="43" height="43" viewBox="0 0 43 43" fill="none" xmlns="http://www.w3.org/2000/svg">
<path d="M19.708 35.8333C23.9846 35.8333 28.0861 34.1345 31.1101 31.1104C34.1341 28.0864 35.833 23.985 35.833 19.7083C35.833 15.4317 34.1341 11.3303 31.1101 8.30624C28.0861 5.28221 23.9846 3.58334 19.708 3.58334C15.4314 3.58334 11.3299 5.28221 8.30591 8.30624C5.28189 11.3303 3.58301 15.4317 3.58301 19.7083C3.58301 23.985 5.28189 28.0864 8.30591 31.1104C11.3299 34.1345 15.4314 35.8333 19.708 35.8333ZM33.9159 37.0696C34.8655 39.9363 37.0334 40.2229 38.6997 37.7146C40.2226 35.4213 39.2193 33.54 36.4601 33.54C34.4176 33.5221 33.2709 35.1167 33.9159 37.0696Z" stroke="white" stroke-width="1.5" stroke-linecap="round" stroke-linejoin="round"/>
</svg>
