<svg width="45" height="45" viewBox="0 0 45 45" fill="none" xmlns="http://www.w3.org/2000/svg">
<path d="M6.28128 3.75H22.9688C24.3563 3.75 25.5 4.89375 25.5 6.28125V9.05625C25.5 10.0687 24.8625 11.325 24.2438 11.9625L18.8063 16.7625C18.0563 17.4 17.55 18.6562 17.55 19.6687V25.1063C17.55 25.8563 17.0438 26.8687 16.4063 27.2625L14.6438 28.4062C12.9938 29.4187 10.725 28.275 10.725 26.25V19.5563C10.725 18.675 10.2188 17.5313 9.71253 16.8938L4.91253 11.8312C4.27503 11.1937 3.76878 10.0688 3.76878 9.3V6.39375C3.75003 4.89375 4.89378 3.75 6.28128 3.75Z" stroke="white" stroke-width="1.5" stroke-miterlimit="10" stroke-linecap="round" stroke-linejoin="round"/>
<path d="M3.75 22.5V28.125C3.75 37.5 7.5 41.25 16.875 41.25H28.125C37.5 41.25 41.25 37.5 41.25 28.125V16.875C41.25 11.025 39.7875 7.35 36.3937 5.4375C35.4375 4.89375 33.525 4.48125 31.7813 4.2M24.375 24.375H33.75M20.625 31.875H33.75" stroke="white" stroke-width="1.5" stroke-linecap="round" stroke-linejoin="round"/>
</svg>
